<svg xmlns="http://www.w3.org/2000/svg" xmlns:xlink="http://www.w3.org/1999/xlink" width="100" zoomAndPan="magnify" viewBox="0 0 75 74.999997" height="100" preserveAspectRatio="xMidYMid meet" version="1.0"><defs><clipPath id="3439c8a4cf"><path d="M 18.359375 39.929688 L 31.59375 39.929688 L 31.59375 61.246094 L 18.359375 61.246094 Z M 18.359375 39.929688 " clip-rule="nonzero"/></clipPath><clipPath id="4471a6e248"><path d="M 29.300781 58.847656 C 27.808594 58.675781 26.414062 58.167969 25.199219 57.402344 C 24.359375 56.871094 23.601562 56.214844 22.957031 55.464844 C 21.488281 53.746094 20.601562 51.519531 20.601562 49.089844 L 20.601562 42.238281 C 21.421875 42.332031 22.210938 42.527344 22.957031 42.8125 C 23.761719 43.117188 24.511719 43.523438 25.199219 44.015625 C 26.183594 44.722656 27.035156 45.609375 27.703125 46.628906 C 28.15625 47.320312 28.523438 48.070312 28.792969 48.867188 C 29.125 49.851562 29.304688 50.902344 29.304688 51.996094 Z M 31.542969 61.152344 L 31.542969 52 C 31.542969 50.917969 31.402344 49.867188 31.132812 48.871094 C 30.921875 48.089844 30.636719 47.339844 30.28125 46.628906 C 29.167969 44.398438 27.386719 42.5625 25.199219 41.378906 C 24.492188 40.996094 23.742188 40.683594 22.957031 40.445312 C 21.855469 40.113281 20.6875 39.933594 19.480469 39.933594 L 18.359375 39.933594 L 18.359375 49.089844 C 18.359375 52.925781 20.160156 56.347656 22.957031 58.558594 C 23.648438 59.101562 24.398438 59.574219 25.199219 59.960938 C 26.78125 60.722656 28.550781 61.152344 30.421875 61.152344 Z M 31.542969 61.152344 " clip-rule="nonzero"/></clipPath><clipPath id="15ae0ee192"><path d="M 26.558594 4 L 35.8125 4 L 35.8125 10.414062 L 26.558594 10.414062 Z M 26.558594 4 " clip-rule="nonzero"/></clipPath><clipPath id="b009e38ae5"><path d="M 33.644531 10.335938 C 34.332031 9.765625 35.050781 9.21875 35.785156 8.707031 C 34.992188 7.933594 34.121094 7.234375 33.191406 6.625 C 31.238281 5.347656 29.011719 4.460938 26.617188 4.074219 L 26.617188 6.890625 C 29.261719 7.40625 31.648438 8.65625 33.554688 10.414062 C 33.585938 10.386719 33.617188 10.363281 33.644531 10.335938 " clip-rule="nonzero"/></clipPath><clipPath id="ea4e827687"><path d="M 22.460938 3.855469 L 56.660156 3.855469 L 56.660156 41.921875 L 22.460938 41.921875 Z M 22.460938 3.855469 " clip-rule="nonzero"/></clipPath><clipPath id="4f6ec4ba2a"><path d="M 53.871094 24.820312 C 53.871094 32.242188 48.191406 38.359375 40.949219 39.058594 C 39.425781 39.289062 38.179688 39.058594 38.179688 39.058594 C 35.328125 38.78125 32.714844 37.664062 30.601562 35.957031 C 36.113281 35.019531 42.839844 32.757812 48.746094 27.597656 C 50.652344 25.933594 52.367188 24.066406 53.871094 22.023438 Z M 55.253906 3.855469 C 55.117188 3.855469 54.980469 3.855469 54.84375 3.855469 C 54.519531 3.863281 54.195312 3.871094 53.871094 3.886719 L 53.871094 16.871094 C 52.050781 20.132812 49.722656 23.058594 46.921875 25.503906 C 40.769531 30.878906 33.625 32.847656 28.203125 33.5 C 27.304688 32.335938 26.589844 31.023438 26.085938 29.613281 C 27.621094 23.21875 31.210938 17.617188 36.113281 13.542969 C 36.828125 12.949219 37.570312 12.390625 38.335938 11.863281 C 42.445312 9.050781 47.285156 7.230469 52.511719 6.753906 L 52.511719 3.96875 C 52.492188 3.96875 52.480469 3.96875 52.464844 3.972656 C 52.363281 3.980469 52.265625 3.992188 52.167969 4 C 51.9375 4.019531 51.710938 4.042969 51.484375 4.070312 C 51.371094 4.082031 51.257812 4.09375 51.144531 4.109375 C 51.035156 4.125 50.929688 4.136719 50.824219 4.152344 C 50.808594 4.152344 50.792969 4.15625 50.773438 4.160156 C 50.671875 4.171875 50.566406 4.1875 50.464844 4.203125 C 50.242188 4.230469 50.015625 4.265625 49.792969 4.304688 C 49.6875 4.324219 49.585938 4.339844 49.484375 4.359375 C 49.464844 4.359375 49.449219 4.367188 49.433594 4.371094 C 49.328125 4.386719 49.222656 4.40625 49.121094 4.425781 C 49.007812 4.449219 48.898438 4.46875 48.785156 4.492188 C 48.5625 4.535156 48.339844 4.582031 48.121094 4.632812 C 47.898438 4.683594 47.679688 4.730469 47.457031 4.785156 C 47.347656 4.8125 47.238281 4.839844 47.128906 4.867188 C 46.800781 4.949219 46.472656 5.039062 46.148438 5.132812 C 46.058594 5.15625 45.972656 5.183594 45.882812 5.210938 C 45.425781 5.34375 44.972656 5.488281 44.527344 5.644531 C 44.445312 5.675781 44.359375 5.703125 44.273438 5.734375 C 44.226562 5.75 44.171875 5.769531 44.121094 5.789062 C 44.046875 5.8125 43.972656 5.839844 43.898438 5.871094 C 43.746094 5.921875 43.59375 5.980469 43.445312 6.042969 C 43.359375 6.070312 43.273438 6.105469 43.1875 6.140625 C 43.058594 6.191406 42.929688 6.242188 42.800781 6.296875 C 42.671875 6.351562 42.546875 6.402344 42.421875 6.457031 C 42.289062 6.511719 42.15625 6.570312 42.023438 6.628906 C 40.152344 7.453125 38.359375 8.457031 36.664062 9.632812 C 35.902344 10.15625 35.164062 10.714844 34.449219 11.308594 C 33.632812 11.980469 32.84375 12.695312 32.085938 13.453125 C 29.171875 16.367188 26.875 19.730469 25.257812 23.390625 L 25.257812 3.910156 C 24.800781 3.875 24.339844 3.855469 23.875 3.855469 L 22.488281 3.855469 L 22.488281 24.820312 C 22.488281 26.527344 22.738281 28.175781 23.207031 29.738281 C 23.636719 31.164062 24.253906 32.515625 25.019531 33.757812 C 25.097656 33.886719 25.175781 34.011719 25.257812 34.132812 C 25.289062 34.179688 25.316406 34.226562 25.351562 34.273438 C 25.855469 35.027344 26.417969 35.746094 27.039062 36.410156 C 29.449219 39.015625 32.664062 40.871094 36.285156 41.578125 C 36.902344 41.699219 37.535156 41.785156 38.179688 41.835938 C 38.632812 41.875 39.097656 41.890625 39.5625 41.890625 C 40.03125 41.890625 40.492188 41.875 40.949219 41.835938 C 42.105469 41.742188 43.222656 41.535156 44.300781 41.226562 C 48.277344 40.074219 51.65625 37.519531 53.871094 34.132812 C 55.621094 31.453125 56.640625 28.253906 56.640625 24.816406 L 56.640625 3.855469 Z M 55.253906 3.855469 " clip-rule="nonzero"/></clipPath><clipPath id="a594e7691e"><path d="M 25.386719 43.089844 L 40.964844 43.089844 L 40.964844 71.199219 L 25.386719 71.199219 Z M 25.386719 43.089844 " clip-rule="nonzero"/></clipPath><clipPath id="ad92c561cf"><path d="M 38.175781 43.222656 L 38.175781 54.136719 C 38.175781 61.5 32.585938 67.578125 25.429688 68.355469 L 25.429688 71.144531 C 34.007812 70.363281 40.773438 63.210938 40.941406 54.472656 L 40.949219 54.472656 L 40.949219 43.207031 C 40.886719 43.210938 40.828125 43.21875 40.765625 43.222656 Z M 38.175781 43.222656 " clip-rule="nonzero"/></clipPath></defs><rect x="-7.5" width="90" fill="#ffffff" y="-7.5" height="89.999996" fill-opacity="1"/><rect x="-7.5" width="90" fill="#ffffff" y="-7.5" height="89.999996" fill-opacity="1"/><rect x="-7.5" width="90" fill="#000000" y="-7.5" height="89.999996" fill-opacity="1"/><g clip-path="url(#3439c8a4cf)"><g clip-path="url(#4471a6e248)"><path fill="#ffffff" d="M 17.773438 3.269531 L 57.246094 3.269531 L 57.246094 71.785156 L 17.773438 71.785156 Z M 17.773438 3.269531 " fill-opacity="1" fill-rule="nonzero"/></g></g><g clip-path="url(#15ae0ee192)"><g clip-path="url(#b009e38ae5)"><path fill="#ffffff" d="M 17.773438 3.269531 L 57.246094 3.269531 L 57.246094 71.785156 L 17.773438 71.785156 Z M 17.773438 3.269531 " fill-opacity="1" fill-rule="nonzero"/></g></g><g clip-path="url(#ea4e827687)"><g clip-path="url(#4f6ec4ba2a)"><path fill="#ffffff" d="M 17.773438 3.269531 L 57.246094 3.269531 L 57.246094 71.785156 L 17.773438 71.785156 Z M 17.773438 3.269531 " fill-opacity="1" fill-rule="nonzero"/></g></g><g clip-path="url(#a594e7691e)"><g clip-path="url(#ad92c561cf)"><path fill="#ffffff" d="M 17.773438 3.269531 L 57.246094 3.269531 L 57.246094 71.785156 L 17.773438 71.785156 Z M 17.773438 3.269531 " fill-opacity="1" fill-rule="nonzero"/></g></g></svg>