<svg xmlns="http://www.w3.org/2000/svg" xmlns:xlink="http://www.w3.org/1999/xlink" width="95" zoomAndPan="magnify" viewBox="0 0 71.25 48.749998" height="65" preserveAspectRatio="xMidYMid meet" version="1.0"><defs><clipPath id="1c3c075f98"><path d="M 3.917969 18.808594 L 5.015625 18.808594 L 5.015625 25.980469 L 3.917969 25.980469 Z M 3.917969 25.980469 L 8.792969 25.980469 L 8.792969 26.457031 L 3.917969 26.457031 Z M 3.917969 25.980469 " clip-rule="nonzero"/></clipPath><clipPath id="4b34cb9082"><path d="M 14.40625 18.808594 L 19.152344 18.808594 L 19.152344 19.339844 L 14.40625 19.339844 Z M 14.40625 19.339844 L 15.503906 19.339844 L 15.503906 22.390625 L 14.40625 22.390625 Z M 14.40625 22.390625 L 18.761719 22.390625 L 18.761719 22.878906 L 14.40625 22.878906 Z M 14.40625 22.878906 L 15.503906 22.878906 L 15.503906 25.925781 L 14.40625 25.925781 Z M 14.40625 25.925781 L 19.316406 25.925781 L 19.316406 26.457031 L 14.40625 26.457031 Z M 14.40625 25.925781 " clip-rule="nonzero"/></clipPath><clipPath id="473c6f9471"><path d="M 23.472656 27.199219 L 26.589844 27.199219 L 26.589844 32.222656 L 23.472656 32.222656 Z M 23.472656 27.199219 " clip-rule="nonzero"/></clipPath><clipPath id="7006d90613"><path d="M 26.050781 31.65625 C 25.699219 31.617188 25.371094 31.496094 25.082031 31.316406 C 24.886719 31.191406 24.707031 31.039062 24.554688 30.859375 C 24.210938 30.457031 24 29.929688 24 29.359375 L 24 27.742188 C 24.195312 27.765625 24.378906 27.8125 24.554688 27.878906 C 24.746094 27.949219 24.921875 28.046875 25.082031 28.160156 C 25.316406 28.328125 25.515625 28.539062 25.671875 28.777344 C 25.78125 28.941406 25.867188 29.117188 25.929688 29.304688 C 26.007812 29.539062 26.050781 29.785156 26.050781 30.042969 Z M 26.578125 32.199219 L 26.578125 30.042969 C 26.578125 29.789062 26.546875 29.542969 26.480469 29.304688 C 26.433594 29.121094 26.363281 28.945312 26.28125 28.777344 C 26.019531 28.253906 25.597656 27.820312 25.082031 27.539062 C 24.917969 27.449219 24.738281 27.375 24.554688 27.320312 C 24.296875 27.242188 24.019531 27.199219 23.734375 27.199219 L 23.472656 27.199219 L 23.472656 29.359375 C 23.472656 30.261719 23.894531 31.066406 24.554688 31.589844 C 24.71875 31.71875 24.894531 31.828125 25.082031 31.917969 C 25.457031 32.101562 25.875 32.199219 26.316406 32.199219 Z M 26.578125 32.199219 " clip-rule="nonzero"/></clipPath><clipPath id="bb5b7a837e"><path d="M 25.402344 18.726562 L 27.585938 18.726562 L 27.585938 20.242188 L 25.402344 20.242188 Z M 25.402344 18.726562 " clip-rule="nonzero"/></clipPath><clipPath id="63224b867f"><path d="M 27.074219 20.222656 C 27.238281 20.089844 27.40625 19.960938 27.578125 19.839844 C 27.390625 19.660156 27.1875 19.492188 26.96875 19.351562 C 26.507812 19.050781 25.980469 18.839844 25.417969 18.75 L 25.417969 19.414062 C 26.039062 19.535156 26.601562 19.828125 27.054688 20.242188 C 27.058594 20.234375 27.066406 20.230469 27.074219 20.222656 " clip-rule="nonzero"/></clipPath><clipPath id="3701103dbb"><path d="M 24.4375 18.695312 L 32.5 18.695312 L 32.5 27.667969 L 24.4375 27.667969 Z M 24.4375 18.695312 " clip-rule="nonzero"/></clipPath><clipPath id="9e9435b043"><path d="M 31.839844 23.636719 C 31.839844 25.386719 30.503906 26.828125 28.796875 26.992188 C 28.4375 27.046875 28.144531 26.992188 28.144531 26.992188 C 27.46875 26.929688 26.855469 26.664062 26.355469 26.261719 C 27.65625 26.042969 29.242188 25.507812 30.632812 24.292969 C 31.082031 23.898438 31.484375 23.460938 31.839844 22.980469 Z M 32.167969 18.695312 C 32.132812 18.695312 32.101562 18.699219 32.070312 18.699219 C 31.992188 18.699219 31.917969 18.699219 31.839844 18.703125 L 31.839844 21.765625 C 31.410156 22.535156 30.863281 23.222656 30.203125 23.800781 C 28.753906 25.066406 27.070312 25.53125 25.792969 25.683594 C 25.582031 25.410156 25.410156 25.101562 25.292969 24.769531 C 25.65625 23.261719 26.5 21.941406 27.65625 20.980469 C 27.824219 20.839844 28 20.707031 28.179688 20.585938 C 29.148438 19.921875 30.289062 19.492188 31.519531 19.378906 L 31.519531 18.722656 C 31.515625 18.722656 31.511719 18.722656 31.507812 18.726562 C 31.484375 18.726562 31.460938 18.730469 31.4375 18.730469 C 31.386719 18.734375 31.332031 18.742188 31.277344 18.746094 C 31.25 18.75 31.226562 18.753906 31.199219 18.757812 C 31.171875 18.761719 31.148438 18.761719 31.121094 18.765625 C 31.117188 18.765625 31.117188 18.769531 31.109375 18.769531 C 31.085938 18.769531 31.0625 18.773438 31.039062 18.777344 C 30.984375 18.785156 30.933594 18.792969 30.878906 18.804688 C 30.855469 18.808594 30.832031 18.8125 30.808594 18.816406 C 30.804688 18.816406 30.796875 18.816406 30.792969 18.816406 C 30.769531 18.824219 30.746094 18.828125 30.722656 18.832031 C 30.695312 18.835938 30.667969 18.839844 30.640625 18.847656 C 30.589844 18.855469 30.539062 18.867188 30.484375 18.878906 C 30.433594 18.890625 30.382812 18.902344 30.328125 18.917969 C 30.304688 18.921875 30.277344 18.929688 30.253906 18.933594 C 30.175781 18.953125 30.097656 18.976562 30.019531 18.996094 C 30 19.003906 29.980469 19.011719 29.957031 19.015625 C 29.851562 19.046875 29.746094 19.082031 29.640625 19.117188 C 29.621094 19.125 29.597656 19.132812 29.578125 19.140625 C 29.566406 19.144531 29.554688 19.148438 29.542969 19.152344 C 29.527344 19.160156 29.507812 19.164062 29.492188 19.171875 C 29.457031 19.183594 29.417969 19.199219 29.382812 19.210938 C 29.363281 19.21875 29.34375 19.226562 29.324219 19.234375 C 29.292969 19.246094 29.261719 19.257812 29.230469 19.273438 C 29.203125 19.285156 29.171875 19.296875 29.140625 19.308594 C 29.109375 19.324219 29.078125 19.335938 29.050781 19.351562 C 28.609375 19.546875 28.183594 19.78125 27.785156 20.058594 C 27.605469 20.183594 27.433594 20.3125 27.261719 20.453125 C 27.070312 20.613281 26.886719 20.78125 26.707031 20.960938 C 26.019531 21.644531 25.476562 22.4375 25.097656 23.300781 L 25.097656 18.710938 C 24.988281 18.703125 24.882812 18.695312 24.769531 18.695312 L 24.445312 18.695312 L 24.445312 23.636719 C 24.445312 24.039062 24.503906 24.429688 24.613281 24.796875 C 24.714844 25.132812 24.859375 25.453125 25.042969 25.746094 C 25.058594 25.773438 25.078125 25.804688 25.097656 25.832031 C 25.105469 25.84375 25.113281 25.855469 25.121094 25.867188 C 25.238281 26.042969 25.371094 26.210938 25.515625 26.371094 C 26.085938 26.984375 26.84375 27.421875 27.695312 27.585938 C 27.84375 27.617188 27.992188 27.636719 28.144531 27.648438 C 28.25 27.65625 28.359375 27.660156 28.46875 27.660156 C 28.578125 27.660156 28.6875 27.65625 28.796875 27.648438 C 29.066406 27.625 29.332031 27.578125 29.585938 27.503906 C 30.523438 27.234375 31.320312 26.628906 31.839844 25.832031 C 32.253906 25.199219 32.492188 24.445312 32.492188 23.636719 L 32.492188 18.695312 Z M 32.167969 18.695312 " clip-rule="nonzero"/></clipPath><clipPath id="fb64ec461a"><path d="M 25.128906 27.945312 L 28.800781 27.945312 L 28.800781 34.570312 L 25.128906 34.570312 Z M 25.128906 27.945312 " clip-rule="nonzero"/></clipPath><clipPath id="4abb5c21e5"><path d="M 28.140625 27.976562 L 28.140625 30.546875 C 28.140625 32.28125 26.824219 33.714844 25.136719 33.898438 L 25.136719 34.554688 C 27.160156 34.371094 28.753906 32.6875 28.792969 30.625 L 28.796875 30.625 L 28.796875 27.972656 C 28.78125 27.972656 28.765625 27.972656 28.753906 27.976562 Z M 28.140625 27.976562 " clip-rule="nonzero"/></clipPath><clipPath id="e83fc335fc"><path d="M 36 28.835938 L 37.875 28.835938 L 37.875 31.265625 L 36 31.265625 Z M 36 28.835938 " clip-rule="nonzero"/></clipPath><clipPath id="17b5f5c5ba"><path d="M 36.714844 28.96875 L 36.714844 29.921875 L 37.171875 29.921875 C 37.222656 29.921875 37.269531 29.917969 37.308594 29.90625 C 37.34375 29.898438 37.378906 29.882812 37.402344 29.855469 C 37.429688 29.832031 37.449219 29.796875 37.464844 29.753906 C 37.480469 29.710938 37.492188 29.65625 37.5 29.589844 L 37.566406 29.589844 L 37.566406 30.410156 L 37.5 30.410156 C 37.5 30.351562 37.492188 30.296875 37.480469 30.253906 C 37.46875 30.210938 37.453125 30.175781 37.425781 30.148438 C 37.402344 30.121094 37.371094 30.101562 37.328125 30.089844 C 37.285156 30.078125 37.234375 30.070312 37.171875 30.070312 L 36.714844 30.070312 L 36.714844 30.832031 C 36.714844 30.890625 36.714844 30.9375 36.71875 30.972656 C 36.71875 31.007812 36.726562 31.039062 36.730469 31.0625 C 36.738281 31.082031 36.75 31.101562 36.761719 31.117188 C 36.777344 31.128906 36.792969 31.140625 36.816406 31.152344 C 36.867188 31.183594 36.925781 31.195312 36.984375 31.195312 L 37.078125 31.195312 L 37.078125 31.261719 L 36 31.261719 L 36 31.195312 L 36.085938 31.195312 C 36.191406 31.195312 36.265625 31.167969 36.3125 31.109375 C 36.34375 31.070312 36.359375 30.980469 36.359375 30.832031 L 36.359375 29.265625 C 36.359375 29.207031 36.355469 29.160156 36.355469 29.125 C 36.351562 29.089844 36.347656 29.058594 36.339844 29.035156 C 36.332031 29.011719 36.324219 28.996094 36.308594 28.980469 C 36.296875 28.96875 36.28125 28.957031 36.257812 28.945312 C 36.203125 28.914062 36.144531 28.902344 36.085938 28.902344 L 36 28.902344 L 36 28.835938 L 37.867188 28.835938 L 37.867188 29.367188 L 37.828125 29.367188 C 37.804688 29.28125 37.777344 29.210938 37.746094 29.160156 C 37.714844 29.105469 37.679688 29.066406 37.632812 29.039062 C 37.589844 29.007812 37.539062 28.988281 37.480469 28.980469 C 37.417969 28.972656 37.347656 28.96875 37.269531 28.96875 Z M 36.714844 28.96875 " clip-rule="nonzero"/></clipPath><clipPath id="15bfac3c2d"><path d="M 36.34375 18.808594 L 43.246094 18.808594 L 43.246094 26.480469 L 36.34375 26.480469 Z M 36.34375 18.808594 " clip-rule="nonzero"/></clipPath><clipPath id="287a08d9f8"><path d="M 37.742188 24.726562 L 39.542969 20.316406 L 41.34375 24.726562 Z M 38.925781 18.808594 L 39.191406 19.449219 L 36.34375 26.457031 L 37.035156 26.457031 L 37.515625 25.261719 L 41.554688 25.261719 L 42.046875 26.457031 L 43.21875 26.457031 L 40.097656 18.808594 Z M 38.925781 18.808594 " clip-rule="nonzero"/></clipPath><clipPath id="696b0ff9eb"><path d="M 40.351562 28.835938 L 42.53125 28.835938 L 42.53125 31.265625 L 40.351562 31.265625 Z M 40.351562 28.835938 " clip-rule="nonzero"/></clipPath><clipPath id="bda60b18dd"><path d="M 42.449219 30.589844 L 42.511719 30.605469 L 42.296875 31.261719 L 40.351562 31.261719 L 40.351562 31.195312 L 40.445312 31.195312 C 40.550781 31.195312 40.625 31.164062 40.671875 31.097656 C 40.699219 31.058594 40.710938 30.972656 40.710938 30.832031 L 40.710938 29.265625 C 40.710938 29.113281 40.695312 29.015625 40.660156 28.980469 C 40.613281 28.925781 40.539062 28.902344 40.445312 28.902344 L 40.351562 28.902344 L 40.351562 28.835938 L 41.488281 28.835938 L 41.488281 28.902344 C 41.421875 28.902344 41.363281 28.90625 41.320312 28.910156 C 41.273438 28.914062 41.234375 28.925781 41.207031 28.9375 C 41.179688 28.949219 41.15625 28.960938 41.140625 28.980469 C 41.121094 28.996094 41.109375 29.011719 41.097656 29.03125 C 41.078125 29.070312 41.066406 29.160156 41.066406 29.304688 L 41.066406 30.832031 C 41.066406 30.875 41.070312 30.910156 41.074219 30.9375 C 41.074219 30.96875 41.082031 30.992188 41.089844 31.011719 C 41.09375 31.03125 41.105469 31.050781 41.117188 31.0625 C 41.128906 31.074219 41.144531 31.082031 41.164062 31.089844 C 41.195312 31.101562 41.292969 31.109375 41.453125 31.109375 L 41.636719 31.109375 C 41.828125 31.109375 41.964844 31.09375 42.042969 31.066406 C 42.082031 31.054688 42.121094 31.035156 42.15625 31.015625 C 42.191406 30.992188 42.222656 30.960938 42.257812 30.921875 C 42.289062 30.886719 42.320312 30.839844 42.351562 30.785156 C 42.382812 30.734375 42.417969 30.667969 42.449219 30.589844 " clip-rule="nonzero"/></clipPath><clipPath id="364173d070"><path d="M 44.929688 28.78125 L 47.414062 28.78125 L 47.414062 31.320312 L 44.929688 31.320312 Z M 44.929688 28.78125 " clip-rule="nonzero"/></clipPath><clipPath id="64eb1e9bef"><path d="M 46.148438 28.910156 C 46.019531 28.910156 45.90625 28.9375 45.808594 28.988281 C 45.710938 29.042969 45.628906 29.117188 45.558594 29.214844 C 45.492188 29.3125 45.441406 29.429688 45.40625 29.566406 C 45.371094 29.707031 45.351562 29.859375 45.351562 30.03125 C 45.351562 30.203125 45.371094 30.359375 45.40625 30.503906 C 45.441406 30.644531 45.492188 30.765625 45.558594 30.867188 C 45.625 30.96875 45.707031 31.050781 45.808594 31.105469 C 45.90625 31.164062 46.019531 31.191406 46.148438 31.191406 C 46.265625 31.191406 46.375 31.171875 46.472656 31.128906 C 46.574219 31.085938 46.660156 31.019531 46.734375 30.929688 C 46.804688 30.835938 46.863281 30.722656 46.902344 30.582031 C 46.945312 30.445312 46.964844 30.277344 46.964844 30.082031 C 46.964844 29.898438 46.949219 29.734375 46.914062 29.589844 C 46.882812 29.441406 46.828125 29.320312 46.761719 29.21875 C 46.691406 29.121094 46.609375 29.042969 46.503906 28.988281 C 46.402344 28.9375 46.285156 28.910156 46.148438 28.910156 M 46.183594 28.78125 C 46.507812 28.78125 46.789062 28.898438 47.03125 29.140625 C 47.269531 29.378906 47.390625 29.675781 47.390625 30.035156 C 47.390625 30.402344 47.269531 30.710938 47.027344 30.953125 C 46.789062 31.195312 46.496094 31.320312 46.152344 31.320312 C 45.808594 31.320312 45.515625 31.199219 45.28125 30.960938 C 45.046875 30.726562 44.929688 30.417969 44.929688 30.039062 C 44.929688 29.65625 45.066406 29.339844 45.335938 29.097656 C 45.574219 28.886719 45.855469 28.78125 46.183594 28.78125 " clip-rule="nonzero"/></clipPath><clipPath id="05da16ce47"><path d="M 48.777344 18.808594 L 54.960938 18.808594 L 54.960938 26.480469 L 48.777344 26.480469 Z M 48.777344 18.808594 " clip-rule="nonzero"/></clipPath><clipPath id="e2bfdca1c6"><path d="M 51.359375 22.355469 L 49.871094 22.355469 L 49.871094 19.285156 L 51.359375 19.285156 C 52.351562 19.285156 53.171875 19.949219 53.171875 20.824219 C 53.171875 21.703125 52.351562 22.355469 51.359375 22.355469 M 52.617188 22.765625 C 53.574219 22.511719 54.265625 21.734375 54.265625 20.824219 C 54.265625 19.707031 53.246094 18.808594 51.976562 18.808594 L 48.777344 18.808594 L 48.777344 26.457031 L 49.871094 26.457031 L 49.871094 22.84375 L 50.550781 22.84375 C 51.457031 22.84375 52.277344 23.332031 52.628906 24.0625 L 53.738281 26.457031 L 54.945312 26.457031 L 53.761719 23.929688 C 53.523438 23.429688 53.121094 23.03125 52.617188 22.765625 " clip-rule="nonzero"/></clipPath><clipPath id="e79916ec4f"><path d="M 49.554688 28.835938 L 53.0625 28.835938 L 53.0625 31.320312 L 49.554688 31.320312 Z M 49.554688 28.835938 " clip-rule="nonzero"/></clipPath><clipPath id="e06bb28eea"><path d="M 53.058594 28.835938 L 53.058594 28.902344 C 53.027344 28.902344 52.996094 28.902344 52.972656 28.910156 C 52.945312 28.914062 52.921875 28.921875 52.898438 28.9375 C 52.878906 28.949219 52.859375 28.964844 52.839844 28.984375 C 52.820312 29.003906 52.800781 29.03125 52.785156 29.0625 C 52.761719 29.101562 52.722656 29.203125 52.667969 29.359375 L 51.964844 31.320312 L 51.890625 31.320312 L 51.320312 29.765625 L 50.75 31.320312 L 50.683594 31.320312 L 49.9375 29.300781 C 49.878906 29.148438 49.84375 29.058594 49.832031 29.035156 C 49.804688 28.988281 49.773438 28.957031 49.730469 28.933594 C 49.6875 28.910156 49.628906 28.902344 49.554688 28.902344 L 49.554688 28.835938 L 50.488281 28.835938 L 50.488281 28.902344 L 50.441406 28.902344 C 50.375 28.902344 50.324219 28.914062 50.292969 28.945312 C 50.257812 28.972656 50.242188 29.007812 50.242188 29.046875 C 50.242188 29.070312 50.246094 29.101562 50.261719 29.152344 C 50.273438 29.199219 50.292969 29.261719 50.320312 29.335938 L 50.816406 30.699219 L 51.234375 29.539062 L 51.101562 29.171875 C 51.082031 29.128906 51.0625 29.089844 51.039062 29.058594 C 51.019531 29.023438 50.996094 28.996094 50.96875 28.972656 C 50.941406 28.949219 50.914062 28.929688 50.878906 28.917969 C 50.839844 28.90625 50.800781 28.902344 50.75 28.902344 L 50.75 28.835938 L 51.730469 28.835938 L 51.730469 28.902344 L 51.660156 28.902344 C 51.589844 28.902344 51.539062 28.914062 51.507812 28.945312 C 51.476562 28.972656 51.460938 29.011719 51.460938 29.0625 C 51.460938 29.121094 51.488281 29.226562 51.546875 29.378906 L 52.027344 30.699219 L 52.503906 29.363281 C 52.558594 29.210938 52.585938 29.109375 52.585938 29.054688 C 52.585938 28.996094 52.5625 28.957031 52.507812 28.933594 C 52.457031 28.914062 52.390625 28.902344 52.308594 28.902344 L 52.308594 28.835938 Z M 53.058594 28.835938 " clip-rule="nonzero"/></clipPath><clipPath id="31939c56d0"><path d="M 55.476562 28.835938 L 57.660156 28.835938 L 57.660156 31.265625 L 55.476562 31.265625 Z M 55.476562 28.835938 " clip-rule="nonzero"/></clipPath><clipPath id="aba0edecdd"><path d="M 56.191406 28.96875 L 56.191406 29.925781 L 56.746094 29.925781 C 56.824219 29.925781 56.890625 29.921875 56.941406 29.90625 C 56.992188 29.894531 57.03125 29.871094 57.058594 29.84375 C 57.085938 29.8125 57.105469 29.777344 57.117188 29.730469 C 57.128906 29.6875 57.136719 29.636719 57.140625 29.574219 L 57.207031 29.574219 L 57.207031 30.417969 L 57.140625 30.417969 C 57.132812 30.359375 57.121094 30.3125 57.113281 30.273438 C 57.105469 30.234375 57.097656 30.207031 57.089844 30.191406 C 57.078125 30.171875 57.0625 30.152344 57.046875 30.136719 C 57.027344 30.121094 57.007812 30.105469 56.980469 30.09375 C 56.953125 30.082031 56.917969 30.074219 56.878906 30.066406 C 56.84375 30.0625 56.796875 30.058594 56.746094 30.058594 L 56.191406 30.058594 L 56.191406 30.859375 C 56.191406 30.964844 56.199219 31.03125 56.207031 31.054688 C 56.214844 31.066406 56.21875 31.078125 56.226562 31.085938 C 56.234375 31.09375 56.246094 31.105469 56.257812 31.109375 C 56.273438 31.117188 56.292969 31.121094 56.316406 31.125 C 56.335938 31.128906 56.367188 31.132812 56.402344 31.132812 L 56.828125 31.132812 C 56.898438 31.132812 56.960938 31.128906 57.007812 31.125 C 57.058594 31.121094 57.101562 31.113281 57.136719 31.101562 C 57.171875 31.09375 57.207031 31.078125 57.234375 31.058594 C 57.261719 31.042969 57.289062 31.019531 57.320312 30.988281 C 57.359375 30.953125 57.398438 30.90625 57.4375 30.851562 C 57.476562 30.796875 57.515625 30.730469 57.558594 30.65625 L 57.632812 30.65625 L 57.414062 31.261719 L 55.476562 31.261719 L 55.476562 31.195312 L 55.566406 31.195312 C 55.589844 31.195312 55.613281 31.195312 55.640625 31.191406 C 55.667969 31.183594 55.691406 31.175781 55.714844 31.167969 C 55.738281 31.15625 55.757812 31.140625 55.777344 31.125 C 55.792969 31.109375 55.808594 31.089844 55.816406 31.070312 C 55.828125 31.03125 55.835938 30.953125 55.835938 30.835938 L 55.835938 29.257812 C 55.835938 29.105469 55.820312 29.011719 55.789062 28.972656 C 55.746094 28.925781 55.671875 28.902344 55.566406 28.902344 L 55.476562 28.902344 L 55.476562 28.835938 L 57.414062 28.835938 L 57.414062 29.367188 L 57.371094 29.367188 C 57.355469 29.300781 57.34375 29.25 57.328125 29.207031 C 57.316406 29.164062 57.300781 29.132812 57.28125 29.105469 C 57.265625 29.078125 57.246094 29.054688 57.222656 29.039062 C 57.199219 29.023438 57.175781 29.007812 57.144531 28.996094 C 57.09375 28.976562 57.007812 28.96875 56.882812 28.96875 Z M 56.191406 28.96875 " clip-rule="nonzero"/></clipPath><clipPath id="b97a9b380f"><path d="M 59.972656 28.835938 L 62.484375 28.835938 L 62.484375 31.265625 L 59.972656 31.265625 Z M 59.972656 28.835938 " clip-rule="nonzero"/></clipPath><clipPath id="37235b70bb"><path d="M 60.6875 30.015625 C 60.710938 30.015625 60.730469 30.015625 60.746094 30.015625 C 60.765625 30.015625 60.777344 30.015625 60.789062 30.015625 C 60.910156 30.015625 61.015625 30.003906 61.105469 29.976562 C 61.195312 29.949219 61.273438 29.914062 61.332031 29.863281 C 61.394531 29.816406 61.4375 29.761719 61.46875 29.695312 C 61.5 29.628906 61.515625 29.558594 61.515625 29.484375 C 61.515625 29.40625 61.5 29.339844 61.476562 29.277344 C 61.449219 29.214844 61.414062 29.160156 61.367188 29.113281 C 61.316406 29.070312 61.261719 29.035156 61.195312 29.007812 C 61.128906 28.984375 61.058594 28.972656 60.976562 28.972656 C 60.941406 28.972656 60.898438 28.972656 60.851562 28.980469 C 60.804688 28.984375 60.75 28.992188 60.6875 29.003906 Z M 62.472656 31.261719 L 61.800781 31.261719 L 60.949219 30.128906 C 60.917969 30.128906 60.886719 30.128906 60.863281 30.128906 C 60.839844 30.132812 60.816406 30.132812 60.796875 30.132812 C 60.78125 30.132812 60.761719 30.132812 60.742188 30.128906 C 60.726562 30.128906 60.707031 30.128906 60.6875 30.128906 L 60.6875 30.832031 C 60.6875 30.988281 60.703125 31.082031 60.738281 31.117188 C 60.785156 31.171875 60.855469 31.195312 60.949219 31.195312 L 61.046875 31.195312 L 61.046875 31.261719 L 59.972656 31.261719 L 59.972656 31.195312 L 60.066406 31.195312 C 60.171875 31.195312 60.246094 31.164062 60.292969 31.097656 C 60.320312 31.058594 60.332031 30.972656 60.332031 30.832031 L 60.332031 29.265625 C 60.332031 29.113281 60.316406 29.015625 60.28125 28.980469 C 60.230469 28.925781 60.160156 28.902344 60.066406 28.902344 L 59.972656 28.902344 L 59.972656 28.835938 L 60.886719 28.835938 C 61.152344 28.835938 61.347656 28.855469 61.476562 28.890625 C 61.539062 28.910156 61.597656 28.9375 61.652344 28.972656 C 61.707031 29.007812 61.753906 29.050781 61.796875 29.101562 C 61.839844 29.148438 61.871094 29.203125 61.894531 29.265625 C 61.917969 29.324219 61.933594 29.390625 61.933594 29.460938 C 61.933594 29.535156 61.917969 29.605469 61.894531 29.671875 C 61.871094 29.734375 61.832031 29.796875 61.78125 29.847656 C 61.730469 29.902344 61.664062 29.949219 61.585938 29.988281 C 61.507812 30.027344 61.417969 30.058594 61.3125 30.082031 L 61.832031 30.777344 C 61.953125 30.9375 62.054688 31.046875 62.136719 31.097656 C 62.222656 31.148438 62.335938 31.183594 62.472656 31.195312 Z M 62.472656 31.261719 " clip-rule="nonzero"/></clipPath><clipPath id="e2773c6150"><path d="M 60.28125 18.695312 L 66.601562 18.695312 L 66.601562 26.589844 L 60.28125 26.589844 Z M 60.28125 18.695312 " clip-rule="nonzero"/></clipPath><clipPath id="5c82086695"><path d="M 61.390625 20.683594 C 61.390625 19.792969 62.257812 19.21875 63.265625 19.21875 C 64.121094 19.21875 64.925781 19.605469 65.480469 20.195312 L 66.074219 19.640625 C 65.492188 19.128906 64.421875 18.695312 63.125 18.695312 C 61.601562 18.695312 60.292969 19.519531 60.292969 20.683594 C 60.292969 23.585938 65.492188 22.535156 65.492188 24.597656 C 65.492188 25.40625 64.648438 26.058594 63.402344 26.058594 C 62.535156 26.058594 61.589844 25.726562 60.960938 25.140625 L 60.28125 25.726562 C 60.960938 26.179688 62.054688 26.589844 63.402344 26.589844 C 65.015625 26.589844 66.589844 25.648438 66.589844 24.40625 C 66.589844 21.558594 61.390625 22.65625 61.390625 20.683594 " clip-rule="nonzero"/></clipPath><clipPath id="68c7919a9a"><path d="M 64.917969 28.78125 L 66.601562 28.78125 L 66.601562 31.347656 L 64.917969 31.347656 Z M 64.917969 28.78125 " clip-rule="nonzero"/></clipPath><clipPath id="6ff6bd11d2"><path d="M 66.421875 28.78125 L 66.421875 29.621094 L 66.351562 29.621094 C 66.332031 29.457031 66.292969 29.328125 66.234375 29.234375 C 66.203125 29.1875 66.167969 29.144531 66.125 29.105469 C 66.082031 29.066406 66.039062 29.035156 65.988281 29.007812 C 65.9375 28.980469 65.882812 28.960938 65.828125 28.945312 C 65.773438 28.929688 65.714844 28.921875 65.660156 28.921875 C 65.59375 28.921875 65.535156 28.933594 65.480469 28.953125 C 65.429688 28.976562 65.378906 29.003906 65.339844 29.039062 C 65.300781 29.074219 65.269531 29.113281 65.246094 29.15625 C 65.226562 29.203125 65.214844 29.246094 65.214844 29.296875 C 65.214844 29.363281 65.230469 29.421875 65.261719 29.46875 C 65.292969 29.519531 65.339844 29.566406 65.394531 29.605469 C 65.449219 29.648438 65.515625 29.691406 65.59375 29.730469 C 65.667969 29.769531 65.75 29.8125 65.839844 29.855469 C 65.941406 29.90625 66.035156 29.957031 66.125 30.007812 C 66.214844 30.054688 66.296875 30.109375 66.363281 30.167969 C 66.433594 30.226562 66.488281 30.296875 66.527344 30.371094 C 66.570312 30.445312 66.589844 30.539062 66.589844 30.644531 C 66.589844 30.734375 66.570312 30.820312 66.53125 30.902344 C 66.492188 30.984375 66.4375 31.054688 66.367188 31.117188 C 66.296875 31.179688 66.214844 31.226562 66.117188 31.265625 C 66.019531 31.300781 65.914062 31.320312 65.796875 31.320312 C 65.753906 31.320312 65.71875 31.320312 65.6875 31.316406 C 65.65625 31.316406 65.625 31.3125 65.597656 31.308594 C 65.570312 31.304688 65.539062 31.300781 65.507812 31.289062 C 65.480469 31.28125 65.441406 31.269531 65.402344 31.253906 C 65.371094 31.242188 65.339844 31.234375 65.308594 31.222656 C 65.277344 31.214844 65.25 31.207031 65.226562 31.203125 C 65.199219 31.195312 65.175781 31.191406 65.160156 31.1875 C 65.140625 31.183594 65.128906 31.183594 65.125 31.183594 C 65.09375 31.183594 65.070312 31.191406 65.050781 31.207031 C 65.035156 31.226562 65.019531 31.261719 65.011719 31.320312 L 64.941406 31.320312 L 64.941406 30.484375 L 65.011719 30.484375 C 65.027344 30.574219 65.046875 30.648438 65.066406 30.714844 C 65.089844 30.78125 65.113281 30.835938 65.140625 30.878906 C 65.167969 30.921875 65.203125 30.960938 65.246094 31 C 65.289062 31.035156 65.339844 31.066406 65.390625 31.09375 C 65.445312 31.121094 65.503906 31.140625 65.566406 31.15625 C 65.628906 31.171875 65.691406 31.179688 65.757812 31.179688 C 65.835938 31.179688 65.90625 31.167969 65.96875 31.148438 C 66.03125 31.125 66.082031 31.097656 66.125 31.058594 C 66.167969 31.023438 66.203125 30.980469 66.222656 30.933594 C 66.246094 30.882812 66.257812 30.832031 66.257812 30.78125 C 66.257812 30.703125 66.242188 30.636719 66.207031 30.585938 C 66.175781 30.53125 66.128906 30.484375 66.074219 30.441406 C 66.019531 30.402344 65.953125 30.359375 65.878906 30.324219 C 65.804688 30.285156 65.722656 30.242188 65.640625 30.195312 C 65.546875 30.140625 65.457031 30.089844 65.371094 30.039062 C 65.28125 29.992188 65.207031 29.9375 65.140625 29.882812 C 65.074219 29.824219 65.019531 29.757812 64.980469 29.683594 C 64.9375 29.609375 64.917969 29.519531 64.917969 29.417969 C 64.917969 29.332031 64.9375 29.25 64.972656 29.171875 C 65.011719 29.097656 65.0625 29.027344 65.128906 28.96875 C 65.195312 28.910156 65.269531 28.863281 65.359375 28.832031 C 65.449219 28.796875 65.546875 28.78125 65.65625 28.78125 C 65.785156 28.78125 65.925781 28.8125 66.078125 28.875 C 66.144531 28.902344 66.195312 28.917969 66.226562 28.917969 C 66.257812 28.917969 66.285156 28.910156 66.304688 28.890625 C 66.324219 28.871094 66.339844 28.835938 66.351562 28.78125 Z M 66.421875 28.78125 " clip-rule="nonzero"/></clipPath></defs><g clip-path="url(#1c3c075f98)"><path fill="#000000" d="M 3.917969 18.808594 L 8.804688 18.808594 L 8.804688 26.453125 L 3.917969 26.453125 Z M 3.917969 18.808594 " fill-opacity="1" fill-rule="nonzero"/></g><g clip-path="url(#4b34cb9082)"><path fill="#000000" d="M 14.40625 18.808594 L 19.320312 18.808594 L 19.320312 26.453125 L 14.40625 26.453125 Z M 14.40625 18.808594 " fill-opacity="1" fill-rule="nonzero"/></g><g clip-path="url(#473c6f9471)"><g clip-path="url(#7006d90613)"><path fill="#000000" d="M 23.332031 18.558594 L 32.636719 18.558594 L 32.636719 34.707031 L 23.332031 34.707031 Z M 23.332031 18.558594 " fill-opacity="1" fill-rule="nonzero"/></g></g><g clip-path="url(#bb5b7a837e)"><g clip-path="url(#63224b867f)"><path fill="#000000" d="M 23.332031 18.558594 L 32.636719 18.558594 L 32.636719 34.707031 L 23.332031 34.707031 Z M 23.332031 18.558594 " fill-opacity="1" fill-rule="nonzero"/></g></g><g clip-path="url(#3701103dbb)"><g clip-path="url(#9e9435b043)"><path fill="#000000" d="M 23.332031 18.558594 L 32.636719 18.558594 L 32.636719 34.707031 L 23.332031 34.707031 Z M 23.332031 18.558594 " fill-opacity="1" fill-rule="nonzero"/></g></g><g clip-path="url(#fb64ec461a)"><g clip-path="url(#4abb5c21e5)"><path fill="#000000" d="M 23.332031 18.558594 L 32.636719 18.558594 L 32.636719 34.707031 L 23.332031 34.707031 Z M 23.332031 18.558594 " fill-opacity="1" fill-rule="nonzero"/></g></g><g clip-path="url(#e83fc335fc)"><g clip-path="url(#17b5f5c5ba)"><path fill="#000000" d="M 36 28.835938 L 37.875 28.835938 L 37.875 31.265625 L 36 31.265625 Z M 36 28.835938 " fill-opacity="1" fill-rule="nonzero"/></g></g><g clip-path="url(#15bfac3c2d)"><g clip-path="url(#287a08d9f8)"><path fill="#000000" d="M 36.34375 18.808594 L 43.21875 18.808594 L 43.21875 26.453125 L 36.34375 26.453125 Z M 36.34375 18.808594 " fill-opacity="1" fill-rule="nonzero"/></g></g><g clip-path="url(#696b0ff9eb)"><g clip-path="url(#bda60b18dd)"><path fill="#000000" d="M 40.351562 28.835938 L 42.503906 28.835938 L 42.503906 31.265625 L 40.351562 31.265625 Z M 40.351562 28.835938 " fill-opacity="1" fill-rule="nonzero"/></g></g><g clip-path="url(#364173d070)"><g clip-path="url(#64eb1e9bef)"><path fill="#000000" d="M 44.929688 28.78125 L 47.386719 28.78125 L 47.386719 31.320312 L 44.929688 31.320312 Z M 44.929688 28.78125 " fill-opacity="1" fill-rule="nonzero"/></g></g><g clip-path="url(#05da16ce47)"><g clip-path="url(#e2bfdca1c6)"><path fill="#000000" d="M 48.777344 18.808594 L 54.960938 18.808594 L 54.960938 26.453125 L 48.777344 26.453125 Z M 48.777344 18.808594 " fill-opacity="1" fill-rule="nonzero"/></g></g><g clip-path="url(#e79916ec4f)"><g clip-path="url(#e06bb28eea)"><path fill="#000000" d="M 49.554688 28.835938 L 53.0625 28.835938 L 53.0625 31.320312 L 49.554688 31.320312 Z M 49.554688 28.835938 " fill-opacity="1" fill-rule="nonzero"/></g></g><g clip-path="url(#31939c56d0)"><g clip-path="url(#aba0edecdd)"><path fill="#000000" d="M 55.476562 28.835938 L 57.628906 28.835938 L 57.628906 31.265625 L 55.476562 31.265625 Z M 55.476562 28.835938 " fill-opacity="1" fill-rule="nonzero"/></g></g><g clip-path="url(#b97a9b380f)"><g clip-path="url(#37235b70bb)"><path fill="#000000" d="M 59.972656 28.835938 L 62.484375 28.835938 L 62.484375 31.265625 L 59.972656 31.265625 Z M 59.972656 28.835938 " fill-opacity="1" fill-rule="nonzero"/></g></g><g clip-path="url(#e2773c6150)"><g clip-path="url(#5c82086695)"><path fill="#000000" d="M 60.28125 18.695312 L 66.601562 18.695312 L 66.601562 26.589844 L 60.28125 26.589844 Z M 60.28125 18.695312 " fill-opacity="1" fill-rule="nonzero"/></g></g><g clip-path="url(#68c7919a9a)"><g clip-path="url(#6ff6bd11d2)"><path fill="#000000" d="M 64.917969 28.78125 L 66.601562 28.78125 L 66.601562 31.320312 L 64.917969 31.320312 Z M 64.917969 28.78125 " fill-opacity="1" fill-rule="nonzero"/></g></g></svg>