<svg xmlns="http://www.w3.org/2000/svg" xmlns:xlink="http://www.w3.org/1999/xlink" width="1920" zoomAndPan="magnify" viewBox="0 0 1440 809.999993" height="1080" preserveAspectRatio="xMidYMid meet" version="1.0"><defs><g/></defs><g fill="#f4b6a5" fill-opacity="1"><g transform="translate(332.469379, 674.57668)"><g><path d="M -104.882812 -15.652344 C -100.511719 -6.964844 -22.054688 -37.523438 17.066406 -46.320312 C 17.066406 -46.320312 138.730469 -78.703125 139.78125 -79.464844 C 140.261719 -80.132812 140.070312 -81.277344 139.3125 -82.328125 C 137.121094 -84.90625 132.253906 -82.339844 129.296875 -82.441406 C 120.042969 -81.507812 117.382812 -86.949219 106.882812 -82.867188 C 102.972656 -81.632812 100.683594 -81.257812 100.492188 -82.402344 C 99.449219 -85.167969 120.433594 -86.273438 121.203125 -88.753906 C 121.585938 -89.992188 120.824219 -91.042969 119.585938 -91.425781 C 118.347656 -91.808594 117.203125 -91.621094 116.058594 -91.433594 C 110.808594 -91.15625 107.570312 -92.976562 105.757812 -93.265625 C 102.136719 -93.84375 30.378906 -76.144531 12.730469 -72.652344 C 7.097656 -71.136719 2.800781 -68.664062 6.828125 -79.910156 C 24.183594 -128.042969 43.203125 -148.226562 43.023438 -152.898438 C 43.21875 -155.285156 41.789062 -156.8125 43.609375 -160.050781 L 45.613281 -162.144531 C 46.957031 -164.71875 44.664062 -164.339844 42.46875 -163.390625 C 36.550781 -160.066406 42.289062 -168.066406 45.148438 -168.535156 C 52.019531 -169.667969 73.847656 -212.066406 87.429688 -233.121094 L 116.125 -276.652344 C 129.695312 -290.644531 130.378906 -297.226562 155.710938 -329.03125 C 199.117188 -383.214844 195.097656 -375.5 203.320312 -386.261719 C 205.136719 -389.5 204.101562 -395.796875 213.652344 -402.074219 C 239.148438 -418.621094 262.570312 -447.757812 283.5625 -452.390625 C 294.917969 -454.851562 296.4375 -452.75 295.941406 -441.496094 C 295.253906 -431.386719 288.558594 -422.054688 284.058594 -413.667969 C 281.667969 -410.335938 289.199219 -407.460938 291.863281 -405.546875 C 293.769531 -404.683594 295.011719 -404.300781 296.828125 -407.539062 C 302.09375 -418.402344 309.382812 -438.417969 308.453125 -451.199219 C 308.074219 -453.488281 304.472656 -464.65625 295.796875 -467.34375 C 270.828125 -476.164062 246.84375 -453.988281 227.542969 -435.523438 C 133.617188 -345.382812 145.347656 -345.550781 124.988281 -322.796875 C 103.195312 -298.039062 107.203125 -298.699219 106.8125 -293.933594 C 106.617188 -291.546875 101.460938 -287.171875 99.074219 -287.367188 C 96.691406 -287.5625 91.046875 -278.988281 92.476562 -277.460938 C 93.140625 -276.980469 92.664062 -276.316406 91.519531 -276.125 C 88.179688 -274.988281 58.234375 -228.3125 57.460938 -222.304688 C 57.265625 -219.921875 52.5 -220.3125 52.78125 -218.59375 C 53.347656 -215.160156 23.121094 -170.199219 -4.167969 -114.554688 C -31.933594 -58.242188 -16.964844 -56.589844 -91.953125 -44.238281 C -95.960938 -43.582031 -102.546875 -40.730469 -106.835938 -41.789062 C -108.648438 -42.078125 -113.3125 -45.425781 -115.800781 -42.664062 C -114.566406 -38.75 -118.386719 -36.945312 -120.007812 -36.089844 C -127.933594 -30.671875 -116.136719 -16.152344 -108.695312 -17.375 C -107.550781 -17.566406 -105.644531 -16.703125 -104.882812 -15.652344 Z M 213.476562 -410.277344 C 214.242188 -412.753906 215.386719 -412.941406 215.765625 -410.652344 C 215.953125 -409.507812 212.136719 -407.703125 213.476562 -410.277344 Z M -15.992188 -64.980469 C -17.617188 -64.125 9.113281 -126.734375 37.4375 -176.085938 C 66.722656 -226.769531 54.96875 -216.015625 135.480469 -323.347656 C 188.550781 -393.824219 230.003906 -424.167969 180.785156 -373.140625 C 133.578125 -324.210938 52.753906 -204.480469 61.914062 -205.988281 C 64.203125 -206.363281 65.914062 -203.117188 61.144531 -203.507812 C 52.753906 -204.480469 -12.839844 -67.265625 -15.992188 -64.980469 Z M 78.648438 -229.320312 C 77.316406 -230.277344 81.140625 -235.613281 82.285156 -235.800781 C 84.480469 -236.75 79.886719 -228.9375 78.648438 -229.320312 Z M 51.378906 -184.261719 C 48.808594 -185.601562 54.828125 -191.886719 55.488281 -187.878906 C 55.863281 -185.589844 53.285156 -183.398438 51.378906 -184.261719 Z M 88.195312 -85.667969 C 84 -86.152344 95.449219 -88.039062 92.777344 -86.421875 C 91.726562 -85.660156 90.007812 -85.378906 88.195312 -85.667969 Z M 70.625 -74.542969 C 58.414062 -73.707031 78.457031 -80.535156 76.253906 -76.058594 C 76.351562 -75.484375 73.582031 -74.441406 70.625 -74.542969 Z M 45.53125 -69.824219 C 43.53125 -71.257812 60.613281 -74.65625 60.988281 -72.367188 C 61.367188 -70.078125 48.199219 -67.910156 45.53125 -69.824219 Z M 6.214844 -58.644531 C 2.214844 -61.511719 18.621094 -61.863281 19.960938 -64.433594 C 20.824219 -66.339844 30.648438 -67.371094 27.59375 -64.515625 C 23.960938 -61.566406 8.21875 -57.210938 6.214844 -58.644531 Z M 111.738281 -78.375 C 107.636719 -78.285156 121.28125 -81.121094 117.464844 -79.316406 C 116.414062 -78.554688 113.550781 -78.085938 111.738281 -78.375 Z M 111.738281 -78.375 "/></g></g></g><g fill="#f4b6a5" fill-opacity="1"><g transform="translate(516.220004, 644.314428)"><g><path d="M 15.25 -93.058594 C 23.167969 -94.949219 30.136719 -99.035156 37.015625 -103.695312 C 87.625 -135.550781 102.441406 -152.691406 118.300781 -167.0625 L 150.019531 -195.804688 C 152.597656 -197.992188 163.394531 -207.414062 160.351562 -211.617188 C 159.589844 -212.667969 158.921875 -213.144531 157.777344 -212.957031 C 153.105469 -212.773438 149.183594 -208.011719 145.554688 -205.0625 L 133.042969 -195.359375 C 125.6875 -190.03125 31.671875 -103.992188 4.59375 -107.765625 C -12.855469 -110.183594 -6.707031 -133.539062 6.175781 -137.425781 C 21.257812 -142.257812 79.503906 -177.722656 91.160156 -189.050781 C 101.863281 -199.042969 104.730469 -203.042969 105.511719 -212.578125 C 106.003906 -220.304688 100.972656 -233 92.105469 -233.300781 C 83.902344 -233.125 75.023438 -229.902344 67.960938 -226.386719 C 56.601562 -220.398438 46.28125 -211.644531 37.492188 -204.316406 C 12.085938 -183.667969 -22.816406 -138.527344 -21.527344 -112.871094 C -20.230469 -94.269531 -0.496094 -88.699219 15.25 -93.058594 Z M 29.203125 -158.265625 C 28.347656 -159.890625 31.6875 -161.027344 31.976562 -162.839844 C 37.898438 -166.167969 35.703125 -165.214844 37.230469 -166.644531 C 36.65625 -166.550781 36.085938 -166.457031 35.992188 -167.027344 L 34.460938 -165.601562 L 33.890625 -165.507812 C 13.457031 -153.910156 11.742188 -153.628906 20.058594 -163.816406 C 41.566406 -190.289062 54.746094 -199.515625 66.96875 -207.40625 C 80.722656 -216.726562 84.832031 -220.34375 85.597656 -222.824219 C 87.421875 -229.589844 90.460938 -221.859375 92.5625 -223.382812 C 93.039062 -224.046875 93.808594 -226.527344 94.757812 -224.332031 C 95.707031 -222.136719 95.699219 -218.605469 96.742188 -215.839844 C 97.121094 -213.550781 97.882812 -212.5 96.449219 -210.5 C 95.011719 -208.5 92.246094 -207.453125 90.8125 -205.453125 C 88.804688 -203.359375 87.464844 -200.789062 85.363281 -199.265625 C 82.304688 -196.410156 77.914062 -194.511719 74.667969 -192.800781 C 71.421875 -191.089844 69.601562 -187.851562 66.453125 -185.566406 C 65.402344 -184.808594 59.574219 -180.90625 62.148438 -179.566406 L 65.011719 -180.039062 C 63.574219 -178.039062 58.902344 -177.855469 60.902344 -176.421875 C 60.996094 -175.851562 53.648438 -174.050781 54.316406 -173.574219 C 56.128906 -173.285156 55.742188 -172.046875 53.933594 -172.335938 C 52.121094 -172.625 39.230469 -165.210938 39.898438 -164.730469 C 40.753906 -163.109375 37.992188 -165.59375 37.316406 -162.542969 C 36.839844 -161.875 36.933594 -161.304688 36.265625 -161.78125 C 36.171875 -162.355469 32.355469 -160.550781 32.542969 -159.40625 C 33.210938 -158.925781 32.449219 -159.976562 29.203125 -158.265625 Z M 68.257812 -181.75 C 64.054688 -178.707031 64.351562 -184.046875 66.164062 -183.757812 C 67.402344 -183.371094 64.25 -181.089844 67.496094 -182.800781 C 68.546875 -183.5625 69.597656 -184.320312 69.691406 -183.75 C 69.210938 -183.082031 71.886719 -184.699219 72.554688 -184.222656 C 72.648438 -183.648438 72.648438 -183.648438 72.074219 -183.554688 C 71.410156 -184.03125 70.929688 -183.367188 71.597656 -182.886719 C 71.878906 -181.171875 70.929688 -183.367188 68.257812 -181.75 Z M 39.703125 -162.347656 C 40.179688 -163.015625 62.234375 -175.464844 62.332031 -174.894531 C 63.183594 -173.269531 38.644531 -158.058594 39.703125 -162.347656 Z M 39.703125 -162.347656 "/></g></g></g><g fill="#f4b6a5" fill-opacity="1"><g transform="translate(649.596649, 622.348365)"><g><path d="M -7.070312 -92.910156 C 1.242188 -99.570312 7.457031 -108.238281 13.765625 -116.332031 C 47.519531 -161.285156 77.832031 -202.140625 127.769531 -230.945312 C 140.085938 -238.265625 145.152344 -243.214844 138.476562 -244.46875 C 136.667969 -244.757812 137.238281 -244.851562 137.050781 -245.996094 C 136.863281 -247.140625 132.28125 -246.386719 127.320312 -244.394531 C 109.660156 -237.367188 103.453125 -232.230469 87.214844 -220.148438 C 80.910156 -215.582031 42.691406 -179.890625 42.882812 -178.746094 C 42.589844 -176.933594 13.828125 -148.089844 13.066406 -149.140625 C 12.398438 -149.621094 12.5 -152.578125 13.839844 -155.148438 L 22.089844 -180.027344 C 24.871094 -188.128906 31.089844 -196.792969 30.339844 -204.902344 C 29.871094 -207.765625 29.398438 -210.628906 29.5 -213.582031 C 30.269531 -216.0625 31.511719 -219.207031 34.375 -219.679688 C 33.042969 -220.636719 32.757812 -222.351562 33.144531 -223.589844 C 33.527344 -224.832031 35.054688 -226.257812 36.105469 -227.019531 C 42.316406 -232.15625 49.28125 -232.714844 45.480469 -241.5 C 42.15625 -247.417969 34.4375 -251.4375 28.894531 -245.820312 C 25.929688 -242.394531 21.621094 -232.863281 21.996094 -230.574219 C 22.09375 -230.003906 20.847656 -226.859375 19.507812 -224.285156 C 18.164062 -221.710938 12.988281 -206.75 7.328125 -191.117188 L -10.605469 -139.363281 C -13.386719 -131.261719 -16.167969 -123.160156 -17.710938 -114.675781 C -20.019531 -103.710938 -12.203125 -102.648438 -7.070312 -92.910156 Z M 116.226562 -229.632812 C 115.65625 -229.535156 115.464844 -230.683594 115.371094 -231.253906 C 115.183594 -232.398438 118.335938 -234.683594 121.101562 -235.726562 C 128.261719 -238.667969 129.980469 -238.953125 129.6875 -237.140625 C 129.972656 -235.421875 118.609375 -229.4375 116.226562 -229.632812 Z M 75.636719 -201.191406 C 75.261719 -203.480469 107.359375 -229.933594 110.3125 -229.832031 C 110.886719 -229.925781 111.648438 -228.875 111.929688 -227.160156 C 111.640625 -225.347656 100.75 -216.5 90.628906 -210.128906 L 81.078125 -203.851562 C 77.925781 -201.570312 75.160156 -200.523438 75.636719 -201.191406 Z M 75.636719 -201.191406 "/></g></g></g><g fill="#f4b6a5" fill-opacity="1"><g transform="translate(750.917169, 605.66169)"><g><path d="M 69.332031 -96.671875 C 73.433594 -96.761719 77.0625 -99.710938 80.121094 -102.566406 C 182.445312 -195.265625 105.4375 -123.785156 192.378906 -202.78125 C 194.960938 -204.96875 206.328125 -214.484375 202.710938 -218.59375 C 202.523438 -219.738281 201.285156 -220.121094 200.710938 -220.027344 C 195.464844 -219.75 191.066406 -214.324219 187.34375 -211.945312 L 173.300781 -200.8125 C 84.851562 -130.976562 85.699219 -125.824219 76.921875 -125.558594 C 75.023438 -129.949219 82.089844 -133.464844 81.335938 -138.042969 C 81.238281 -138.613281 80.1875 -137.855469 78.566406 -137 C 73.125 -134.339844 75.804688 -139.484375 81.628906 -143.382812 C 85.832031 -146.425781 86.789062 -147.761719 84.882812 -148.621094 C 82.976562 -149.484375 83.457031 -150.152344 86.222656 -151.195312 C 93.289062 -154.710938 85.46875 -155.773438 92.0625 -162.152344 C 96.078125 -166.339844 90.265625 -169.5 94.84375 -170.253906 C 99.421875 -171.007812 95.148438 -179.121094 98.007812 -179.59375 C 102.589844 -180.347656 131.574219 -225.691406 121.097656 -232.195312 C 118.523438 -233.535156 113.835938 -226.296875 109.464844 -234.984375 C 91.214844 -267.257812 23.828125 -190.894531 5.941406 -163.84375 C -8.785156 -142.601562 -16.753906 -116.007812 -17.535156 -106.472656 C -17.75 -93.5 -4.882812 -90.328125 3.710938 -95.273438 C 21.855469 -106.492188 11.933594 -106.035156 63.050781 -152.671875 C 76.902344 -164.945312 77.382812 -165.613281 73.070312 -156.085938 C 69.238281 -147.222656 65.980469 -138.453125 62.8125 -129.113281 C 59.648438 -119.773438 53.621094 -109.960938 62.1875 -100.789062 C 64.28125 -98.78125 66.28125 -97.347656 69.332031 -96.671875 Z M 10.628906 -121.105469 C 3.464844 -114.632812 1.570312 -122.554688 4.824219 -127.792969 C 7.410156 -133.511719 13.046875 -138.554688 13.820312 -144.5625 C 14.691406 -149.996094 19.835938 -147.316406 15.074219 -151.234375 C 12.980469 -153.242188 12.886719 -153.816406 16.507812 -153.238281 C 20.703125 -152.75 24.71875 -156.941406 22.050781 -158.851562 C 20.050781 -160.289062 25.789062 -168.289062 27.789062 -166.851562 C 30.265625 -166.085938 35.621094 -172.847656 35.148438 -175.710938 C 34.679688 -178.570312 45.667969 -190.375 51.015625 -193.609375 C 53.117188 -195.132812 55.125 -197.226562 55.03125 -197.796875 C 54.371094 -201.804688 91.148438 -231.96875 95.914062 -231.578125 C 98.964844 -230.902344 103.222656 -212.203125 69.871094 -179.074219 C 49.519531 -159.847656 31.835938 -138.710938 10.628906 -121.105469 Z M 69.878906 -132.628906 C 69.210938 -133.105469 69.691406 -133.773438 69.597656 -134.34375 C 69.3125 -136.0625 68.550781 -137.113281 69.507812 -138.445312 C 69.890625 -139.6875 71.804688 -142.351562 73.234375 -140.824219 C 73.992188 -139.773438 71.601562 -136.441406 71.21875 -135.199219 C 70.835938 -133.960938 71.210938 -131.671875 69.878906 -132.628906 Z M 65.757812 -121.953125 C 64.613281 -121.765625 64.421875 -122.910156 65.378906 -124.242188 C 69.496094 -131.390625 69.765625 -122.613281 65.757812 -121.953125 Z M 65.757812 -121.953125 "/></g></g></g><g fill="#f4b6a5" fill-opacity="1"><g transform="translate(926.65377, 576.719283)"><g><path d="M -14.035156 -92.351562 C -12.792969 -91.964844 -5.710938 -106.066406 -5.324219 -107.308594 C -4.269531 -111.597656 -6.371094 -110.074219 -6.933594 -113.511719 C -8.074219 -116.851562 0.0507812 -124.65625 1.867188 -127.894531 C 6.648438 -134.5625 10.859375 -141.132812 17.066406 -146.273438 C 16.777344 -144.460938 15.914062 -142.554688 14.960938 -141.222656 C 10.84375 -134.078125 6.636719 -127.503906 1.855469 -120.835938 C 0.417969 -118.835938 -1.492188 -116.171875 -1.023438 -113.308594 L 3.375 -118.734375 C 5.289062 -121.402344 7.679688 -124.734375 10.164062 -127.496094 L 23.074219 -145.5 C 30.726562 -156.164062 38.28125 -167.40625 47.265625 -177.117188 C 61.125 -192.921875 76.609375 -209.582031 96.367188 -218.128906 C 98.253906 -206.679688 103.605469 -213.441406 103.605469 -213.441406 C 104.570312 -218.304688 110.226562 -233.933594 104.21875 -234.710938 C 103.648438 -234.613281 103.074219 -234.519531 102.597656 -233.855469 L 98.683594 -232.621094 C 83.792969 -226.640625 69.753906 -215.507812 57.332031 -205.234375 C 44.4375 -194.289062 32.488281 -181.152344 22.449219 -167.148438 C 21.492188 -165.816406 20.535156 -164.484375 19.296875 -164.867188 C 19.40625 -171.351562 28.382812 -177.535156 30.300781 -183.730469 C 30.683594 -184.96875 30.972656 -186.78125 30.785156 -187.925781 C 30.597656 -189.070312 28.785156 -189.359375 29.074219 -191.171875 C 29.269531 -193.554688 31.269531 -192.121094 32.226562 -193.453125 C 33.660156 -195.453125 34.140625 -196.121094 34.8125 -199.171875 C 35.683594 -204.605469 42.074219 -205.070312 45.421875 -209.738281 L 48.765625 -214.40625 C 51.542969 -218.976562 57.65625 -224.6875 57.285156 -230.507812 C 53.65625 -227.558594 42.976562 -228.152344 40.984375 -233.113281 C 31.535156 -229.792969 29.703125 -219.496094 24.441406 -212.164062 C 8.273438 -185.394531 -6.375 -156.523438 -19.117188 -126.789062 C -21.609375 -120.5 -26.59375 -107.921875 -27.847656 -101.246094 C -29.003906 -94 -19.460938 -96.746094 -14.035156 -92.351562 Z M -14.035156 -92.351562 "/></g></g></g><g fill="#f4b6a5" fill-opacity="1"><g transform="translate(1027.974289, 560.032607)"><g><path d="M 141.554688 -207.933594 C 140.792969 -208.984375 139.554688 -209.367188 138.984375 -209.273438 C 133.257812 -208.328125 127.433594 -204.429688 123.992188 -200.335938 C 120.070312 -195.574219 115.296875 -192.4375 110.617188 -188.726562 C 102.785156 -182.730469 94.566406 -175.5 85.976562 -170.554688 C 81.679688 -168.085938 77.859375 -166.28125 73.375 -164.953125 L 64.882812 -162.96875 C 65.46875 -170.117188 62.527344 -177.277344 56.140625 -180.34375 C 49.757812 -183.40625 38.410156 -184.476562 37.65625 -189.058594 C 36.902344 -193.636719 40.820312 -198.398438 42.347656 -199.824219 C 57.738281 -217.058594 70.917969 -226.285156 94.675781 -231.960938 C 99.734375 -233.382812 108.414062 -234.222656 113.464844 -232.117188 C 115.472656 -234.210938 114.8125 -238.21875 111.761719 -238.890625 L 109.285156 -239.660156 L 107.855469 -241.1875 C 104.523438 -243.578125 100.328125 -244.0625 96.890625 -243.496094 C 70.558594 -239.160156 56.996094 -228.695312 34.261719 -209.664062 C 28.050781 -204.527344 22.125 -197.671875 18.011719 -190.523438 C 14.757812 -185.285156 13.214844 -176.800781 19.789062 -172.589844 C 25.695312 -168.859375 34.28125 -170.273438 40.570312 -167.78125 C 41.808594 -167.398438 43.050781 -167.015625 43.144531 -166.441406 C 45.238281 -164.433594 44.746094 -156.710938 44.839844 -156.136719 C 37.582031 -150.238281 25.929688 -142.441406 24.777344 -138.722656 C 24.394531 -137.484375 23.917969 -136.816406 23.15625 -137.867188 C 20.964844 -140.449219 -51.125 -96.238281 -26.75 -76.734375 C -19.988281 -71.378906 -16.363281 -70.800781 -7.199219 -75.835938 C 3.589844 -81.730469 15.234375 -86 25.835938 -93.035156 C 35.382812 -99.3125 55.175781 -125.503906 60.445312 -136.367188 C 62.261719 -139.605469 63.507812 -142.75 64.183594 -145.800781 C 66.761719 -147.988281 72.296875 -150.078125 75.449219 -152.359375 C 78.027344 -154.546875 81.460938 -155.113281 84.613281 -157.398438 L 96.265625 -165.195312 C 108.488281 -173.089844 119.285156 -182.511719 130.652344 -192.027344 C 133.230469 -194.214844 144.597656 -203.730469 141.554688 -207.933594 Z M -10.984375 -91.675781 C -33.597656 -86.1875 22.757812 -129.570312 45.183594 -136.203125 L 48.140625 -136.101562 C 47.359375 -126.566406 6 -95.648438 -10.984375 -91.675781 Z M 2.65625 -90.984375 C 13.921875 -97.542969 17.738281 -99.347656 18.117188 -97.058594 C 18.683594 -93.621094 -21.503906 -77.007812 2.65625 -90.984375 Z M 2.65625 -90.984375 "/></g></g></g></svg>